<?xml version="1.0" standalone="no"?>
<!DOCTYPE svg PUBLIC "-//W3C//DTD SVG 20010904//EN"
 "http://www.w3.org/TR/2001/REC-SVG-20010904/DTD/svg10.dtd">
<svg version="1.0" xmlns="http://www.w3.org/2000/svg"
 width="250.000000pt" height="175.000000pt" viewBox="0 0 250.000000 175.000000"
 preserveAspectRatio="xMidYMid meet">
<metadata>
Created by potrace 1.16, written by Peter Selinger 2001-2019
</metadata>
<g transform="translate(0.000000,175.000000) scale(0.011077,-0.011528)"
fill="#000000" stroke="none">
<path d="M11275 14333 c-653 -43 -1335 -163 -1899 -333 -1137 -343 -1916 -930
-2239 -1690 -107 -253 -179 -557 -179 -765 0 -234 119 -608 284 -897 553 -966
1712 -1564 3409 -1758 471 -53 1064 -71 1399 -42 954 84 1678 257 2329 556
480 221 912 544 1183 886 242 304 416 678 493 1055 37 183 41 259 20 389 -99
634 -495 1239 -1096 1678 -527 384 -1243 659 -2094 803 -552 93 -1231 143
-1610 118z m525 -192 c107 -40 231 -82 275 -93 295 -72 555 -193 744 -346 25
-20 106 -72 180 -115 381 -222 691 -455 980 -733 l131 -126 0 -58 0 -57 -147
-17 c-82 -10 -224 -25 -318 -34 l-170 -17 -3 -44 c-2 -24 1 -48 6 -53 5 -5
140 7 328 28 175 20 355 37 399 38 l80 1 63 -85 c130 -173 249 -386 328 -585
38 -96 48 -135 52 -197 l5 -78 -696 0 -696 0 -25 -56 c-14 -31 -26 -58 -26
-60 0 -2 329 -4 730 -4 l730 0 0 -67 c0 -257 -117 -560 -320 -835 -41 -55 -47
-56 -211 -34 -449 63 -1288 134 -1630 139 l-154 2 -126 -46 -127 -46 187 -7
c564 -20 1100 -59 1616 -116 255 -29 235 -22 235 -83 l0 -52 -103 -92 c-525
-473 -1363 -905 -2333 -1203 -266 -82 -268 -82 -552 11 -1015 332 -1827 756
-2299 1203 l-73 69 0 57 0 57 153 16 c321 35 674 67 977 87 173 11 343 23 377
26 l62 5 16 50 c10 28 15 52 13 54 -15 15 -1065 -73 -1495 -125 -89 -11 -193
-20 -231 -20 l-68 0 -61 83 c-195 262 -299 519 -320 783 l-6 84 911 0 911 0
-23 53 -23 52 -878 3 -878 2 6 98 c3 62 14 129 31 187 51 172 178 404 317 578
l54 67 62 0 c35 0 108 -7 163 -15 224 -34 878 -105 962 -105 15 0 18 9 18 53
l0 53 -162 13 c-200 14 -503 45 -703 71 -82 11 -151 20 -152 20 -2 0 -3 25 -3
55 l0 54 107 97 c538 485 1325 953 2308 1371 146 62 152 63 225 60 64 -3 103
-14 270 -76z m-860 -6 c0 -30 -4 -55 -10 -55 -5 0 -114 -51 -242 -114 -795
-390 -1420 -804 -1851 -1228 -119 -117 -121 -118 -167 -118 -92 0 -622 103
-935 182 l-90 23 -3 56 -3 55 103 100 c582 565 1591 960 2886 1129 97 13 207
24 245 24 l67 1 0 -55z m1585 30 c1234 -148 2166 -525 2772 -1122 l124 -122
-3 -58 -3 -58 -220 -37 c-364 -61 -776 -118 -851 -118 l-71 0 -60 68 c-171
191 -426 423 -655 595 -359 269 -864 555 -1310 742 l-68 28 0 54 0 53 68 0
c37 0 162 -11 277 -25z m-4880 -1435 c111 -32 533 -126 730 -163 l180 -34 3
-51 c3 -47 -1 -57 -37 -105 -105 -142 -213 -340 -264 -482 -23 -65 -58 -211
-72 -297 l-6 -38 -554 0 -555 0 0 61 c0 87 28 266 61 396 61 240 168 475 307
671 43 61 45 62 90 62 26 0 79 -9 117 -20z m7989 -97 c77 -118 206 -383 251
-516 50 -149 84 -312 92 -439 l6 -108 -565 0 -566 0 -7 38 c-31 175 -199 529
-362 764 -47 68 -53 83 -53 127 0 49 1 50 33 56 17 3 156 23 307 46 151 22
370 58 485 79 116 21 235 38 266 39 l55 1 58 -87z m-7459 -1230 c33 -265 129
-517 284 -750 55 -82 61 -96 61 -142 0 -31 -4 -51 -11 -51 -26 0 -495 -73
-671 -105 -106 -19 -212 -35 -235 -35 -39 0 -46 4 -84 53 -231 289 -438 769
-439 1015 l0 62 544 0 545 0 6 -47z m7785 1 c0 -68 -45 -256 -96 -406 -75
-219 -177 -415 -313 -600 -55 -75 -57 -77 -99 -78 -24 0 -127 16 -230 35 -164
32 -654 115 -674 115 -5 0 -8 22 -8 48 0 42 7 60 55 132 144 221 242 492 262
725 l6 75 548 0 549 0 0 -46z m-1229 -1064 c143 -23 332 -54 421 -70 89 -17
164 -30 165 -30 2 0 3 -24 3 -54 l0 -53 -78 -75 c-393 -376 -1031 -692 -1778
-882 -352 -89 -822 -171 -1051 -183 l-113 -6 0 54 0 54 78 29 c267 99 718 311
982 460 195 111 491 308 635 423 61 48 175 152 255 230 136 133 147 142 184
143 21 0 155 -18 297 -40z m-5966 -61 c433 -438 1081 -829 1907 -1150 l88 -34
0 -52 0 -53 -45 0 c-66 0 -414 46 -615 81 -991 172 -1791 520 -2305 1000 -64
61 -65 62 -65 115 0 30 2 54 4 54 2 0 127 20 278 45 403 65 526 83 598 84 l65
1 90 -91z"/>
<path d="M11865 13256 c-33 -33 -41 -70 -22 -100 10 -14 66 -49 139 -84 198
-97 315 -210 403 -387 65 -132 85 -227 85 -410 0 -99 -6 -178 -16 -232 -15
-76 -15 -84 0 -108 9 -13 30 -32 46 -40 27 -14 33 -14 59 -1 35 19 55 60 80
167 39 167 36 277 -10 456 -24 92 -100 256 -159 343 -60 88 -162 194 -255 263
-85 64 -265 157 -303 157 -13 0 -34 -11 -47 -24z"/>
<path d="M10615 10200 c-116 -350 -185 -573 -179 -579 5 -5 152 -56 327 -114
217 -72 320 -102 323 -94 2 7 89 267 193 578 l188 565 -71 18 c-126 32 -319
94 -456 146 -73 27 -134 50 -135 50 0 0 -86 -257 -190 -570z"/>
<path d="M14875 8225 c-1102 -104 -2161 -494 -3082 -1136 l-142 -99 -77 0 -77
0 -121 78 c-994 644 -2158 1017 -3302 1058 -209 8 -299 -4 -418 -52 -181 -73
-357 -261 -360 -384 l-1 -35 50 1 c28 0 129 8 225 18 519 49 1124 50 1590 0
609 -64 1196 -211 1697 -425 166 -71 435 -211 591 -308 l133 -83 102 70 c148
101 245 160 392 240 591 321 1366 542 2163 617 405 37 1025 39 1437 4 69 -6
133 -8 141 -5 38 14 -37 157 -131 251 -84 83 -154 126 -272 168 -81 29 -99 31
-238 33 -82 2 -217 -4 -300 -11z"/>
<path d="M7012 6477 c2 -8 282 -753 623 -1655 l620 -1642 524 2 523 3 613
1650 613 1650 -466 3 c-256 1 -469 -1 -473 -5 -4 -5 -161 -507 -349 -1118
-188 -610 -355 -1152 -372 -1202 l-29 -93 -52 0 -52 0 -343 1098 c-189 603
-359 1148 -378 1210 l-35 112 -485 0 c-401 0 -485 -2 -482 -13z"/>
<path d="M11100 4840 l0 -1650 480 0 480 0 0 1650 0 1650 -480 0 -480 0 0
-1650z"/>
<path d="M12840 4835 l0 -1655 480 0 480 0 0 629 0 628 393 6 c419 6 515 15
697 63 346 93 592 325 690 654 115 387 19 818 -237 1061 -145 138 -337 219
-603 255 -83 11 -291 14 -1002 14 l-898 0 0 -1655z m1534 1040 c101 -18 195
-64 236 -114 16 -22 43 -66 58 -98 25 -55 27 -66 27 -198 0 -164 -12 -200 -92
-286 -100 -107 -188 -130 -540 -136 l-263 -6 0 427 0 426 248 0 c167 -1 273
-5 326 -15z"/>
<path d="M5352 2423 c4 -277 10 -307 79 -368 25 -22 28 -23 12 -5 -40 46 -43
72 -43 351 l0 269 -26 0 -26 0 4 -247z"/>
<path d="M5828 2382 c-3 -256 -5 -291 -21 -317 -18 -29 -17 -29 11 3 49 56 55
87 59 355 l5 247 -26 0 -25 0 -3 -288z"/>
<path d="M10020 2536 c0 -81 -4 -136 -10 -138 -7 -2 -6 -15 0 -38 6 -19 10
-91 9 -160 -3 -211 -3 -210 26 -210 l25 0 0 340 0 340 -25 0 -25 0 0 -134z"/>
<path d="M11300 2536 c0 -81 -4 -136 -10 -138 -7 -2 -6 -15 0 -38 6 -19 10
-91 9 -160 -3 -211 -3 -210 26 -210 l25 0 0 340 0 340 -25 0 -25 0 0 -134z"/>
<path d="M12270 2536 c0 -81 -4 -136 -10 -138 -7 -2 -6 -15 0 -38 6 -19 10
-91 9 -160 -3 -211 -3 -210 26 -210 l25 0 0 340 0 340 -25 0 -25 0 0 -134z"/>
<path d="M13490 2330 l0 -340 25 0 25 0 0 144 0 143 138 5 c116 4 144 8 180
26 52 28 54 34 5 16 -25 -8 -88 -13 -180 -14 l-143 0 0 166 0 166 163 -4 c176
-3 201 -10 225 -64 18 -39 15 -175 -4 -202 -9 -13 -14 -26 -11 -29 8 -7 56 69
67 105 22 80 -61 190 -159 211 -29 6 -115 11 -191 11 l-140 0 0 -340z"/>
<path d="M6140 2225 l0 -235 24 0 25 0 3 193 c4 260 2 277 -28 277 l-24 0 0
-235z"/>
<path d="M6800 2225 l0 -235 25 0 25 0 0 235 0 235 -25 0 -25 0 0 -235z"/>
<path d="M8320 2225 l0 -235 25 0 25 0 0 148 c0 92 5 167 14 200 11 44 11 52
0 52 -9 0 -14 12 -14 35 0 31 -3 35 -25 35 l-25 0 0 -235z"/>
<path d="M9360 2225 l0 -235 25 0 25 0 0 235 0 235 -25 0 -25 0 0 -235z"/>
<path d="M14820 2225 l0 -235 24 0 25 0 3 193 c4 260 2 277 -28 277 l-24 0 0
-235z"/>
<path d="M16080 2225 l0 -235 24 0 25 0 3 198 c4 258 3 272 -28 272 l-24 0 0
-235z"/>
<path d="M6475 2431 c18 -21 20 -40 23 -232 l3 -209 26 0 25 0 -4 183 c-3 199
-10 227 -65 262 l-28 18 20 -22z"/>
<path d="M15155 2431 c18 -21 20 -40 23 -232 l3 -209 26 0 25 0 -4 183 c-3
199 -10 227 -65 262 l-28 18 20 -22z"/>
<path d="M16404 2425 c13 -24 16 -69 16 -232 l0 -203 25 0 25 0 0 169 c0 93 3
183 6 200 5 22 3 31 -7 31 -7 0 -28 15 -47 33 l-33 32 15 -30z"/>
<path d="M10625 2241 c0 -173 2 -190 18 -195 9 -2 17 -13 17 -24 0 -12 5 -24
10 -27 11 -7 14 283 4 346 -4 20 -16 49 -28 63 l-21 27 0 -190z"/>
<path d="M14515 2241 c0 -173 2 -190 18 -195 9 -2 17 -13 17 -24 0 -12 5 -24
10 -27 11 -7 14 283 4 346 -4 20 -16 49 -28 63 l-21 27 0 -190z"/>
<path d="M15785 2241 c0 -173 2 -190 18 -195 9 -2 17 -13 17 -24 0 -12 5 -24
10 -27 11 -7 14 283 4 346 -4 20 -16 49 -28 63 l-21 27 0 -190z"/>
<path d="M16754 2401 c3 -18 6 -118 6 -222 l0 -189 25 0 25 0 0 163 c0 171 -7
216 -41 257 l-21 25 6 -34z"/>
<path d="M17365 2241 c0 -173 2 -190 18 -195 9 -2 17 -13 17 -24 0 -12 5 -24
10 -27 11 -7 14 283 4 346 -4 20 -16 49 -28 63 l-21 27 0 -190z"/>
</g>
</svg>
